<svg width="20" height="27" viewBox="0 0 20 27" fill="none" xmlns="http://www.w3.org/2000/svg">
<path d="M19.2365 3.89752L6.98754 0.0310613C6.4693 -0.132474 5.95564 0.366224 5.84599 1.1392L5.61328 3.36982L19.7466 7.83081L19.9793 5.60019C20.0889 4.82751 19.7548 4.06111 19.2365 3.89752Z" fill="black" fill-opacity="0.5"/>
<path d="M14.0854 8.30394C13.9423 7.53544 13.4038 7.08119 12.8888 7.29425L10.5635 8.2571L5.08167 6.52667L4.47879 10.7755L0.711973 12.3349C0.196937 12.548 -0.107607 13.3511 0.0352365 14.1194L2.15806 25.5294C2.30113 26.2976 2.8396 26.7521 3.35464 26.5388L15.5314 21.4985C16.0465 21.2851 16.351 20.4822 16.2082 19.7137L15.8438 17.7549L17.2095 18.1856C17.7277 18.3494 18.2414 17.8507 18.351 17.0777L19.215 10.9878L14.2958 9.4351L14.0854 8.30394ZM15.4916 14.103L15.7928 11.98C15.838 11.6622 16.0493 11.4572 16.2624 11.5243L17.6856 11.9738C17.8989 12.0412 18.0364 12.3561 17.9914 12.6742L17.6902 14.7971C17.645 15.115 17.4337 15.3203 17.2206 15.2529L15.7974 14.8037C15.5839 14.736 15.4464 14.4208 15.4916 14.103ZM0.923869 13.4735L4.29366 12.0791L12.2447 8.78807L13.1003 8.4335C13.1159 8.42721 13.1315 8.42424 13.1467 8.42424C13.2153 8.42424 13.2974 8.49141 13.3214 8.62005L13.4218 9.15965L13.7366 10.8513L1.214 16.0346L0.798803 13.8036C0.77279 13.6636 0.830045 13.5123 0.923869 13.4735ZM15.4446 20.0294C15.4606 20.116 15.4438 20.1876 15.4268 20.2324C15.41 20.2771 15.3776 20.3357 15.3195 20.3595L3.14294 25.3998C3.12754 25.4061 3.11173 25.4094 3.0965 25.4094C3.02787 25.4094 2.94581 25.3419 2.92182 25.2133L1.68365 18.558L14.2062 13.3744L14.97 17.4791L15.4446 20.0294Z" fill="black" fill-opacity="0.5"/>
<path d="M5.11072 20.4849C5.05229 20.1715 4.83297 19.9865 4.62287 20.0733L3.20081 20.6621C2.9909 20.749 2.86665 21.0764 2.92509 21.3898L3.31966 23.5105C3.3781 23.8239 3.59741 24.0089 3.80751 23.9217L5.22958 23.3332C5.43968 23.2464 5.56373 22.919 5.50549 22.6056L5.11072 20.4849Z" fill="black" fill-opacity="0.5"/>
</svg>
