<svg width="83" height="53" viewBox="0 0 83 53" fill="none" xmlns="http://www.w3.org/2000/svg">
<path d="M79.8708 19.5915C80.5609 24.708 77.2577 29.9905 71.0876 34.3872C64.9385 38.7688 56.0523 42.1798 45.886 43.551C35.7198 44.9223 26.2474 43.9876 19.1572 41.3918C12.0426 38.787 7.4579 34.5684 6.76777 29.452C6.07764 24.3355 9.38082 19.053 15.551 14.6563C21.7001 10.2747 30.5863 6.86375 40.7525 5.49248C50.9188 4.12121 60.3911 5.05586 67.4814 7.65171C74.5959 10.2565 79.1807 14.4751 79.8708 19.5915Z" stroke="black" stroke-opacity="0.5"/>
<path d="M76.2321 23.2303C76.9223 28.3468 73.6191 33.6293 67.4489 38.026C61.2998 42.4076 52.4136 45.8186 42.2474 47.1898C32.0811 48.5611 22.6088 47.6264 15.5185 45.0306C8.40396 42.4258 3.81923 38.2072 3.12909 33.0908C2.43896 27.9743 5.74215 22.6918 11.9123 18.2951C18.0614 13.9135 26.9476 10.5025 37.1139 9.13127C47.2801 7.76001 56.7525 8.69465 63.8427 11.2905C70.9573 13.8953 75.542 18.1139 76.2321 23.2303Z" stroke="black" stroke-opacity="0.5"/>
</svg>
