<svg width="19" height="19" viewBox="0 0 19 19" fill="none" xmlns="http://www.w3.org/2000/svg">
<g clip-path="url(#clip0)">
<path d="M9.40111 17.8713L15.4153 12.4878C15.5428 12.3729 15.6152 12.2123 15.6157 12.0419L15.6253 8.44213C15.626 8.20575 15.4874 7.99058 15.2716 7.89281C15.0547 7.79623 14.8014 7.83515 14.6258 7.99307L9.01338 13.0165L3.42924 7.96298C3.25328 7.80411 3.0002 7.76263 2.78395 7.85925C2.56651 7.95586 2.42674 8.17027 2.4261 8.40666L2.41643 12.0065C2.41597 12.1768 2.48873 12.3378 2.61321 12.4534L8.59836 17.8692C8.82579 18.075 9.17377 18.0759 9.40111 17.8713Z" fill="#FEBD96"/>
<path d="M9.42223 10.0718L15.4364 4.68826C15.5639 4.57341 15.6363 4.41281 15.6368 4.24242L15.6465 0.642632C15.6471 0.406246 15.5085 0.191084 15.2928 0.0933093C15.0758 -0.00326882 14.8225 0.0356485 14.6469 0.193569L9.0345 5.21703L3.45036 0.163477C3.2744 0.00461251 3.02132 -0.0368656 2.80507 0.0597483C2.58762 0.156359 2.44785 0.370773 2.44722 0.607159L2.43754 4.20695C2.43709 4.37734 2.50985 4.53833 2.63433 4.65386L8.61947 10.0697C8.84691 10.2755 9.19489 10.2764 9.42223 10.0718Z" fill="#FEBD96"/>
</g>
<defs>
<clipPath id="clip0">
<rect width="18" height="18" fill="white" transform="translate(18.0483 0.0484009) rotate(90.154)"/>
</clipPath>
</defs>
</svg>
