<svg width="24" height="24" viewBox="0 0 24 24" fill="none" xmlns="http://www.w3.org/2000/svg">
<path d="M11.9833 0C7.13324 0 3.1875 3.94574 3.1875 8.79584C3.1875 11.0239 4.59137 14.1718 7.36029 18.1523C9.38416 21.0621 11.3747 23.3137 11.4586 23.4082L11.9833 24L12.5083 23.4082C12.592 23.3137 14.5825 21.0621 16.6066 18.1523C19.3753 14.1718 20.7794 11.0239 20.7794 8.79584C20.7794 3.94574 16.8334 0 11.9833 0ZM15.4623 17.3397C14.0944 19.3077 12.7117 21.0015 11.9833 21.8655C11.2568 21.0038 9.87927 19.3165 8.51221 17.3511C5.94672 13.663 4.59064 10.7045 4.59064 8.79584C4.59064 4.71954 7.90704 1.40314 11.9833 1.40314C16.0598 1.40314 19.376 4.71954 19.376 8.79584C19.376 10.7025 18.0227 13.6569 15.4623 17.3397Z" fill="url(#paint0_linear)"/>
<path d="M11.9832 3.25073C9.12073 3.25073 6.79199 5.57947 6.79199 8.44196C6.79199 11.3044 9.12073 13.6334 11.9832 13.6334C14.8459 13.6334 17.1746 11.3044 17.1746 8.44196C17.1746 5.57947 14.8459 3.25073 11.9832 3.25073ZM11.9832 12.2302C9.89453 12.2302 8.19513 10.5308 8.19513 8.44196C8.19513 6.35327 9.89453 4.65387 11.9832 4.65387C14.0721 4.65387 15.7715 6.35327 15.7715 8.44196C15.7715 10.5308 14.0721 12.2302 11.9832 12.2302Z" fill="url(#paint1_linear)"/>
<defs>
<linearGradient id="paint0_linear" x1="11.9834" y1="0" x2="11.9834" y2="24" gradientUnits="userSpaceOnUse">
<stop stop-color="#7E7878"/>
<stop offset="1" stop-color="#7E7878" stop-opacity="0.28"/>
</linearGradient>
<linearGradient id="paint1_linear" x1="11.9833" y1="3.25073" x2="11.9833" y2="13.6334" gradientUnits="userSpaceOnUse">
<stop stop-color="#7E7878"/>
<stop offset="1" stop-color="#7E7878" stop-opacity="0.28"/>
</linearGradient>
</defs>
</svg>
