<svg width="24" height="24" viewBox="0 0 24 24" fill="none" xmlns="http://www.w3.org/2000/svg">
<g clip-path="url(#clip0)">
<path d="M12 0C13.5464 0 14.8 1.2536 14.8 2.8C14.7983 4.34565 13.5457 5.59825 12 5.6C10.4536 5.6 9.20005 4.3464 9.20005 2.8C9.20005 1.2536 10.4536 0 12 0ZM12 4.8C13.1046 4.8 14 3.90455 14 2.8C13.9987 1.696 13.104 0.8013 12 0.8C10.8955 0.8 10 1.69545 10 2.8C10 3.90455 10.8955 4.8 12 4.8Z" fill="black" fill-opacity="0.5"/>
<path d="M10.8 6H13.2C15.1873 6.0022 16.7978 7.6127 16.8 9.6V16.4H15.2V24H14.4V14.8H15.2V15.6H16V9.6C15.9983 8.05435 14.7457 6.80175 13.2 6.8H10.8C9.2544 6.80175 8.0018 8.05435 8.00005 9.6V15.6H8.80005V14.8H9.60005V24H8.80005V16.4H7.20005V9.6C7.20225 7.6127 8.81275 6.0022 10.8 6Z" fill="black" fill-opacity="0.5"/>
<path d="M11.5999 16.3999H12.3999V23.9999H11.5999V16.3999Z" fill="black" fill-opacity="0.5"/>
<path d="M3.9999 4C5.3254 4 6.3999 5.0745 6.3999 6.4C6.3986 7.72495 5.32485 8.7987 3.9999 8.8C2.6744 8.8 1.5999 7.7255 1.5999 6.4C1.5999 5.0745 2.6744 4 3.9999 4ZM3.9999 8C4.88355 8 5.5999 7.28365 5.5999 6.4C5.5999 5.51635 4.88355 4.8 3.9999 4.8C3.11625 4.8 2.3999 5.51635 2.3999 6.4C2.3999 7.28365 3.11625 8 3.9999 8Z" fill="black" fill-opacity="0.5"/>
<path d="M2.7999 9.19995H6.3999V9.99995H2.7999C1.6959 10.0013 0.801203 10.896 0.799903 12V17.2H1.5999V16.4H2.3999V24H1.5999V18H-9.72748e-05V12C0.00165272 10.4543 1.25425 9.2017 2.7999 9.19995Z" fill="black" fill-opacity="0.5"/>
<path d="M6.4 16.3999V17.1999H8V17.9999H6.4V23.9999H5.6V16.3999H6.4Z" fill="black" fill-opacity="0.5"/>
<path d="M3.5999 18H4.3999V24H3.5999V18Z" fill="black" fill-opacity="0.5"/>
<path d="M19.9999 4C21.3254 4 22.3999 5.0745 22.3999 6.4C22.3986 7.72495 21.3249 8.7987 19.9999 8.8C18.6744 8.8 17.5999 7.7255 17.5999 6.4C17.5999 5.0745 18.6744 4 19.9999 4ZM19.9999 8C20.8836 8 21.5999 7.28365 21.5999 6.4C21.5999 5.51635 20.8836 4.8 19.9999 4.8C19.1163 4.8 18.3999 5.51635 18.3999 6.4C18.3999 7.28365 19.1163 8 19.9999 8Z" fill="black" fill-opacity="0.5"/>
<path d="M21.2 9.19995C22.7456 9.2017 23.9982 10.4543 24 12V18H22.4V24H21.6V16.4H22.4V17.2H23.2V12C23.1987 10.896 22.304 10.0013 21.2 9.99995H17.6V9.19995H21.2Z" fill="black" fill-opacity="0.5"/>
<path d="M17.5999 17.1999V16.3999H18.3999V23.9999H17.5999V17.9999H15.9999V17.1999H17.5999Z" fill="black" fill-opacity="0.5"/>
<path d="M19.5999 18H20.3999V24H19.5999V18Z" fill="black" fill-opacity="0.5"/>
</g>
<defs>
<clipPath id="clip0">
<rect width="24" height="24" fill="white" transform="matrix(-1 0 0 1 24 0)"/>
</clipPath>
</defs>
</svg>
