<svg width="20" height="20" viewBox="0 0 20 20" fill="none" xmlns="http://www.w3.org/2000/svg">
<path d="M16.5988 18.5945H2.40438C1.07861 18.5945 0 17.5159 0 16.1901V6.31381C0 4.98804 1.07861 3.90943 2.40438 3.90943H6.45311L13.2008 1.4238C13.2766 1.39592 13.3603 1.39998 13.4329 1.43491C13.5055 1.46993 13.5609 1.53294 13.5863 1.60953L13.8734 2.47681L15.6436 1.91543C15.7215 1.89082 15.8061 1.89915 15.8775 1.93864C15.9491 1.97813 16.0012 2.0453 16.0217 2.12438L16.4848 3.90933H16.5988C17.9245 3.90933 19.0031 4.98795 19.0031 6.31371V8.78685C19.5775 8.94768 20 9.47583 20 10.1009V12.4032C20 13.0282 19.5775 13.5564 19.0031 13.7172V16.1902C19.0031 17.5159 17.9245 18.5945 16.5988 18.5945ZM2.40438 4.50485C1.40683 4.50485 0.595315 5.31636 0.595315 6.31391V16.1902C0.595315 17.1877 1.40683 17.9992 2.40438 17.9992H16.5988C17.5963 17.9992 18.4078 17.1877 18.4078 16.1902V13.7675H13.095C12.3813 13.7675 11.8005 13.1867 11.8005 12.4729V10.0313C11.8005 9.31747 12.3813 8.73674 13.095 8.73674H18.4078V6.31391C18.4078 5.31636 17.5963 4.50485 16.5988 4.50485H16.2608C16.2565 4.50495 16.2521 4.50495 16.2477 4.50485H14.1397C14.1352 4.50495 14.1306 4.50495 14.1259 4.50485H6.51324C6.50858 4.50495 6.50391 4.50495 6.49935 4.50485H2.40438ZM12.3958 12.4031C12.3958 12.8271 12.7408 13.172 13.1648 13.172H18.6358C19.0598 13.172 19.4048 12.8271 19.4048 12.4031V10.1008C19.4048 9.67684 19.0598 9.33186 18.6358 9.33186H13.1648C12.7408 9.33186 12.3958 9.67684 12.3958 10.1008V12.4031ZM14.3478 3.90953H15.8697L15.5242 2.57791L14.0605 3.04206L14.3478 3.90953ZM8.17536 3.90953H13.7207L13.4021 2.94721C13.4012 2.94463 13.4003 2.94205 13.3995 2.93947C13.3995 2.93937 13.3994 2.93917 13.3994 2.93897L13.118 2.08886L8.17536 3.90953ZM14.1328 12.3788C13.5115 12.3788 13.006 11.8733 13.006 11.252C13.006 10.6307 13.5115 10.1253 14.1328 10.1253C14.7541 10.1253 15.2595 10.6307 15.2595 11.252C15.2596 11.8733 14.7541 12.3788 14.1328 12.3788ZM14.1328 10.7205C13.8397 10.7205 13.6014 10.959 13.6014 11.2519C13.6014 11.5449 13.8398 11.7834 14.1328 11.7834C14.4258 11.7834 14.6642 11.5449 14.6642 11.2519C14.6642 10.959 14.4259 10.7205 14.1328 10.7205Z" fill="black" fill-opacity="0.5"/>
</svg>
